<?xml version="1.0" encoding="UTF-8"?><svg xmlns="http://www.w3.org/2000/svg" xmlns:xlink="http://www.w3.org/1999/xlink" height="258.6" preserveAspectRatio="xMidYMid" version="1.1" viewBox="-1.2 -1.2 258.6 258.6" width="258.6" zoomAndPan="magnify">
 <defs>
  <path d="m250.87 115.64l-110.51-110.51c-6.83-6.8386-17.89-6.8386-24.72-0.0042l-110.51 110.51c-6.8386 6.83-6.8386 17.89-0.0042 24.72l110.51 110.51c6.83 6.84 17.89 6.84 24.72 0l110.51-110.51c6.84-6.83 6.84-17.89 0-24.72zm-122.87 41.44l-29.083-29.08 29.083-29.083 29.08 29.083-29.08 29.08z" id="path-1"/>
  <path d="m250.58 115.78l-110.16-110.16c-6.82-6.8154-17.83-6.8154-24.65-0.0026l-110.16 110.16c-6.8133 6.81-6.8133 17.83-0.0005 24.64l110.16 110.17c6.82 6.81 17.83 6.81 24.65 0l110.16-110.17c6.81-6.81 6.81-17.83 0-24.64zm-122.49 41.31l-28.986-28.99 28.986-28.988 29 28.988-29 28.99z" id="path-3"/>
  <path d="m250.58 115.78l-110.16-110.16c-6.82-6.8154-17.83-6.8154-24.65-0.0026l-110.16 110.16c-6.8133 6.81-6.8133 17.83-0.0005 24.64l110.16 110.17c6.82 6.81 17.83 6.81 24.65 0l110.16-110.17c6.81-6.81 6.81-17.83 0-24.64zm-122.49 41.31l-28.986-28.99 28.986-28.988 29 28.988-29 28.99z" id="path-5"/>
  <path d="m250.58 115.78l-110.16-110.16c-6.82-6.8154-17.83-6.8154-24.65-0.0026l-110.16 110.16c-6.8133 6.81-6.8133 17.83-0.0005 24.64l110.16 110.17c6.82 6.81 17.83 6.81 24.65 0l110.16-110.17c6.81-6.81 6.81-17.83 0-24.64zm-122.49 41.31l-28.986-28.99 28.986-28.988 29 28.988-29 28.99z" id="path-7"/>
  <linearGradient id="linearGradient-9" x1="24.691%" x2="74.734%" xlink:actuate="onLoad" xlink:show="other" xlink:type="simple" xmlns:xlink="http://www.w3.org/1999/xlink" y1="26.425%" y2="80.127%">
   <stop offset="0" stop-color="#1A237E" stop-opacity=".2"/>
   <stop offset="1" stop-color="#1A237E" stop-opacity=".02"/>
  </linearGradient>
  <linearGradient id="linearGradient-10" x1="24.155%" x2="76.174%" xlink:actuate="onLoad" xlink:show="other" xlink:type="simple" xmlns:xlink="http://www.w3.org/1999/xlink" y1="24.155%" y2="76.174%">
   <stop offset="0" stop-color="#fff" stop-opacity=".1"/>
   <stop offset="1" stop-color="#fff" stop-opacity="0"/>
  </linearGradient>
  <linearGradient id="linearGradient-11" x1="41.172%" x2="58.444%" xlink:actuate="onLoad" xlink:show="other" xlink:type="simple" xmlns:xlink="http://www.w3.org/1999/xlink" y1="30.969%" y2="47.661%">
   <stop offset="0" stop-opacity=".2"/>
   <stop offset="1" stop-color="#D8D8D8" stop-opacity="0"/>
  </linearGradient>
  <linearGradient id="linearGradient-12" x1="41.172%" x2="63.155%" xlink:actuate="onLoad" xlink:show="other" xlink:type="simple" xmlns:xlink="http://www.w3.org/1999/xlink" y1="30.969%" y2="52.181%">
   <stop offset="0" stop-opacity=".2"/>
   <stop offset="1" stop-color="#D8D8D8" stop-opacity="0"/>
  </linearGradient>
 </defs>
 <g fill="none">
  <mask fill="white" id="mask-2">
   <use xlink:actuate="onLoad" xlink:href="#path-1" xlink:show="embed" xlink:type="simple" xmlns:xlink="http://www.w3.org/1999/xlink"/>
  </mask>
  <g mask="url(#mask-2)">
   <path d="m250.58 115.78l-40.59-40.585-28.99-28.991-52.91 52.908 29 28.988-29 28.99-52.903 52.91 40.583 40.59c6.82 6.81 17.83 6.81 24.65 0l40.58-40.59 28.99-28.99 40.59-40.59c6.81-6.81 6.81-17.83 0-24.64z" fill="#4285F4"/>
   <path d="m181 46.204l-40.58-40.587c-6.82-6.8124-17.83-6.8124-24.65 0.0004l-40.583 40.587-28.991 28.991-40.586 40.585c-6.8133 6.81-6.8133 17.83-0.0005 24.64l40.586 40.59 28.991 28.99 52.903-52.91-28.986-28.99 28.986-28.988 52.91-52.908z" fill="#4FC3F7"/>
   <mask fill="white" id="mask-4">
    <use xlink:actuate="onLoad" xlink:href="#path-3" xlink:show="embed" xlink:type="simple" xmlns:xlink="http://www.w3.org/1999/xlink"/>
   </mask>
   <path d="m115.77 7.0669c6.82-6.8128 17.83-6.8128 24.65 0l110.16 110.16c3.19 3.19 4.93 7.39 5.07 11.6 0.15-4.64-1.45-9.42-5.07-13.05l-110.16-110.16c-6.82-6.8154-17.83-6.8154-24.65-0.0026l-110.16 110.16c-3.6243 3.63-5.2188 8.41-5.0739 13.05 0.14499-4.21 1.8844-8.41 5.0734-11.6l110.16-110.16z" fill="#fff" mask="url(#mask-4)" opacity=".2"/>
   <mask fill="white" id="mask-6">
    <use xlink:actuate="onLoad" xlink:href="#path-5" xlink:show="embed" xlink:type="simple" xmlns:xlink="http://www.w3.org/1999/xlink"/>
   </mask>
   <path d="m250.58 138.97l-110.16 110.17c-6.82 6.81-17.83 6.81-24.65 0l-110.16-110.17c-3.1895-3.19-4.9289-7.39-5.0739-11.59-0.14491 4.64 1.4496 9.42 5.0734 13.04l110.16 110.17c6.82 6.81 17.83 6.81 24.65 0l110.16-110.17c3.62-3.62 5.22-8.26 5.07-13.04-0.14 4.2-1.88 8.4-5.07 11.59z" fill="#1A237E" mask="url(#mask-6)" opacity=".2"/>
   <mask fill="white" id="mask-8">
    <use xlink:actuate="onLoad" xlink:href="#path-7" xlink:show="embed" xlink:type="simple" xmlns:xlink="http://www.w3.org/1999/xlink"/>
   </mask>
   <path d="m128.09 157.09l-52.903 52.91 40.583 40.59c6.82 6.81 17.83 6.81 24.65 0l40.58-40.59-52.91-52.91z" fill="url(#linearGradient-9)" mask="url(#mask-8)"/>
   <path d="m250.58 115.78l-110.16-110.16c-6.82-6.8154-17.83-6.8154-24.65-0.0026l-110.16 110.16c-6.8133 6.81-6.8133 17.83-0.0005 24.64l110.16 110.17c6.82 6.81 17.83 6.81 24.65 0l110.16-110.17c6.81-6.81 6.81-17.83 0-24.64zm-122.49 41.31l-28.986-28.99 28.986-28.988 29 28.988-29 28.99z" fill="url(#linearGradient-10)" mask="url(#mask-8)"/>
   <rect height="278.31" mask="url(#mask-8)" width="278.31" x="-11.06" y="-11.052"/>
   <polygon fill="url(#linearGradient-11)" fill-opacity=".8" mask="url(#mask-8)" points="128.58 157.33 150.84 179.55 95.977 230.53 75.685 210.24"/>
   <polygon fill="url(#linearGradient-12)" fill-opacity=".8" mask="url(#mask-8)" points="180.99 46.465 203.25 68.689 148.39 119.66 128.09 99.371"/>
  </g>
 </g>
</svg>